<?xml version="1.0" encoding="utf-8"?>
<!-- Generator: Adobe Illustrator 16.0.0, SVG Export Plug-In . SVG Version: 6.00 Build 0)  -->
<!DOCTYPE svg PUBLIC "-//W3C//DTD SVG 1.1//EN" "http://www.w3.org/Graphics/SVG/1.1/DTD/svg11.dtd">
<svg version="1.1" id="Layer_1" xmlns="http://www.w3.org/2000/svg" xmlns:xlink="http://www.w3.org/1999/xlink" x="0px" y="0px"
	 width="353.901px" height="343.971px" viewBox="0 0 353.901 343.971" enable-background="new 0 0 353.901 343.971"
	 xml:space="preserve">
<g>
	<path d="M99.516,303.412c-1.184,2.582-2.697,4.49-4.542,5.723c-1.849,1.232-4.099,1.85-6.758,1.85
		c-4.875,0-8.828-0.998-11.853-2.992c-3.03-1.998-4.542-4.641-4.542-7.924c0-0.473,0.146-1.059,0.443-1.762
		c0.294-0.703,0.588-1.408,0.886-2.113l32.79-72.545h-49.85c-4.58,0-8.087-0.85-10.524-2.553c-2.437-1.699-3.656-4.195-3.656-7.482
		c0-3.285,1.253-5.838,3.767-7.66c2.51-1.818,5.982-2.729,10.413-2.729h58.934l19.94-44.372H76.031
		c-4.58,0-8.086-0.881-10.523-2.641c-2.438-1.761-3.656-4.284-3.656-7.571c0-3.285,1.292-5.899,3.877-7.836
		c2.583-1.937,6.017-2.905,10.302-2.905h68.02l35.891-79.764c1.182-2.581,2.693-4.49,4.543-5.723
		c1.846-1.232,4.099-1.849,6.758-1.849c4.726,0,8.565,0.999,11.521,2.993c2.952,1.998,4.43,4.639,4.43,7.924
		c0,0.941-0.076,1.703-0.222,2.289c-0.147,0.589-0.37,1.117-0.665,1.585l-32.346,72.544h47.635l36.336-79.764
		c1.031-2.465,2.547-4.341,4.542-5.634c1.993-1.291,4.244-1.937,6.756-1.937c4.576,0,8.454,1.029,11.633,3.081
		c3.175,2.055,4.763,4.551,4.763,7.483c0,0.705-0.11,1.409-0.332,2.113c-0.223,0.705-0.555,1.409-0.996,2.114l-32.792,72.544h46.307
		c4.431,0,7.898,0.941,10.412,2.817c2.511,1.879,3.767,4.402,3.767,7.571c0,3.288-1.256,5.871-3.767,7.747
		c-2.514,1.879-5.981,2.818-10.412,2.818h-55.39l-19.939,44.372h54.945c4.431,0,7.9,0.911,10.412,2.729
		c2.511,1.822,3.769,4.375,3.769,7.66c0,3.287-1.219,5.783-3.656,7.482c-2.438,1.703-5.948,2.553-10.524,2.553h-64.03
		l-35.894,79.764c-1.033,2.582-2.512,4.49-4.43,5.723c-1.921,1.232-4.209,1.85-6.868,1.85c-4.729,0-8.605-0.998-11.633-2.992
		c-3.029-1.998-4.541-4.641-4.541-7.924c0-0.473,0.11-1.059,0.333-1.762c0.222-0.703,0.554-1.408,0.996-2.113l32.126-72.545h-47.635
		L99.516,303.412z M144.935,203.224h47.636l19.939-44.372h-47.634L144.935,203.224z"/>
</g>
</svg>
